<?xml version="1.0" standalone="no"?>
<!DOCTYPE svg PUBLIC "-//W3C//DTD SVG 20010904//EN"
 "http://www.w3.org/TR/2001/REC-SVG-20010904/DTD/svg10.dtd">
<svg version="1.0" xmlns="http://www.w3.org/2000/svg"
 width="403.000000pt" height="324.000000pt" viewBox="0 0 403.000000 324.000000"
 preserveAspectRatio="xMidYMid meet">
<metadata>
Created by potrace 1.16, written by Peter Selinger 2001-2019
</metadata>
<g transform="translate(0.000000,324.000000) scale(0.100000,-0.100000)"
fill="#000000" stroke="none">
<path d="M450 2231 l0 -760 29 -3 28 -3 -68 -167 c-64 -158 -136 -375 -165
-498 -53 -221 -104 -489 -104 -546 0 -40 58 -94 107 -101 41 -5 45 -3 84 38
50 54 57 71 64 156 7 77 24 151 36 159 5 3 37 -11 71 -30 65 -36 414 -178 547
-223 47 -16 90 -38 114 -59 47 -43 98 -46 148 -9 19 13 70 49 114 78 45 30 92
69 105 87 14 18 53 62 86 98 l62 66 6 -65 c11 -96 21 -120 75 -173 47 -47 51
-48 79 -37 l29 12 6 127 c4 70 11 162 17 204 10 78 84 366 103 403 11 20 28
131 27 175 0 39 -57 88 -126 109 -56 18 -114 44 -189 85 -93 50 -186 -12 -325
-219 -19 -27 -52 -73 -75 -102 -57 -73 -111 -162 -175 -288 -30 -61 -65 -120
-77 -132 -13 -13 -24 -40 -28 -70 -4 -26 -7 -51 -8 -55 -1 -3 -45 21 -97 54
-52 33 -156 89 -231 125 l-136 66 173 117 c240 162 254 174 265 234 6 31 5 63
-1 87 -30 109 -161 107 -338 -5 -26 -16 -42 -21 -42 -14 1 7 28 83 61 168 103
265 101 260 94 309 -12 79 -37 111 -86 111 -17 0 -19 8 -19 64 0 56 6 76 49
167 l50 103 19 -44 c10 -25 63 -161 118 -302 l99 -258 133 0 c72 0 132 2 132
4 0 3 -81 204 -180 447 -99 244 -180 446 -180 450 0 3 63 142 140 307 77 166
140 304 140 307 0 3 -61 4 -135 3 l-136 -3 -122 -272 -122 -272 -3 275 -2 274
-120 0 -120 0 0 -759z m1264 -1227 c-9 -27 -25 -58 -34 -69 -10 -11 -39 -58
-64 -104 -26 -47 -66 -105 -89 -131 -172 -189 -234 -253 -251 -262 -17 -9 -18
-7 -12 23 26 134 415 644 458 601 4 -4 1 -30 -8 -58z"/>
<path d="M1456 2975 c-21 -7 -54 -28 -73 -46 -63 -62 -63 -59 -63 -796 l0
-663 295 0 295 0 0 120 0 120 -170 0 -170 0 0 185 0 184 170 87 170 86 0 139
c0 76 -2 139 -5 139 -2 0 -79 -39 -170 -86 l-165 -86 0 196 0 196 170 0 170 0
0 120 0 120 -207 0 c-151 -1 -219 -5 -247 -15z"/>
<path d="M2050 2230 l0 -760 125 0 125 0 0 640 0 640 85 0 85 0 0 -560 0 -560
-30 -112 c-56 -208 -56 -208 -162 -208 -108 0 -138 -16 -138 -76 0 -26 13 -44
76 -104 l77 -73 -37 -121 c-57 -191 -68 -255 -62 -381 12 -300 15 -317 56
-330 31 -10 57 3 68 33 32 85 64 205 58 224 -6 27 80 293 152 465 l46 112 66
30 c36 16 90 39 120 50 30 11 70 34 88 51 19 17 53 40 75 51 54 27 77 48 77
69 0 9 9 25 20 35 25 23 25 37 -1 61 -20 18 -22 18 -107 -5 -99 -27 -233 -53
-239 -47 -7 7 30 116 39 116 4 0 8 13 8 29 0 16 18 82 41 145 47 134 46 158
-6 183 l-35 17 0 480 c0 322 -4 494 -11 521 -15 52 -82 119 -134 134 -89 25
-184 9 -240 -41 l-35 -30 0 41 0 41 -125 0 -125 0 0 -760z"/>
<path d="M3015 2975 c-51 -18 -110 -81 -124 -131 -7 -26 -11 -261 -11 -706 l0
-668 125 0 125 0 0 273 0 272 90 46 90 46 0 -319 0 -318 25 0 c24 0 22 -4 -29
-54 -115 -115 -360 -484 -411 -619 -10 -26 -26 -53 -35 -60 -25 -18 -37 -46
-44 -102 -12 -87 10 -140 129 -312 42 -60 119 -65 179 -12 19 16 67 51 108 78
41 26 85 63 98 80 14 18 52 62 85 98 l60 65 7 -76 c8 -88 16 -106 71 -163 44
-46 53 -49 92 -31 21 9 25 17 20 35 -7 31 23 350 39 410 8 26 27 98 44 159 16
61 34 119 40 130 5 10 15 56 21 101 10 71 10 86 -4 113 -16 30 -97 80 -132 80
-10 0 -51 17 -93 38 -57 28 -69 38 -52 40 l22 3 -2 694 -3 693 -30 43 c-53 74
-83 84 -285 86 -133 2 -185 -1 -215 -12z m293 -406 l-3 -181 -80 -44 c-44 -24
-83 -44 -87 -44 -5 0 -8 101 -8 225 l0 225 90 0 90 0 -2 -181z m184 -1395 c10
-9 -31 -102 -67 -152 -19 -27 -44 -71 -56 -96 -21 -48 -46 -79 -213 -259 -89
-97 -122 -125 -134 -113 -3 4 19 55 48 114 63 124 233 356 329 450 60 58 80
70 93 56z"/>
</g>
</svg>
